<svg xmlns="http://www.w3.org/2000/svg" viewBox="0 0 64 64" fill="none">
<circle cx="32" cy="32" r="30" fill="#17B99B" fill-opacity=".06"/>
<ellipse cx="25" cy="18" rx="12" ry="5" stroke="#17B99B" stroke-width="2.6" stroke-linecap="round" stroke-linejoin="round"/><path d="M13 18v12c0 3 5 5 12 5s12-2 12-5V18M13 27c0 3 5 5 12 5s12-2 12-5M33 40c0 3 5 5 12 5s12-2 12-5v-8M33 32c0-3 5-5 12-5s12 2 12 5-5 5-12 5-12-2-12-5z" stroke="#17B99B" stroke-width="2.6" stroke-linecap="round" stroke-linejoin="round"/>
</svg>
